<?xml version="1.0" encoding="UTF-8"?>
<!DOCTYPE svg PUBLIC "-//W3C//DTD SVG 1.1//EN" "http://www.w3.org/Graphics/SVG/1.1/DTD/svg11.dtd">
<svg xmlns="http://www.w3.org/2000/svg" version="1.1" width="500px" height="500px" style="shape-rendering:geometricPrecision; text-rendering:geometricPrecision; image-rendering:optimizeQuality; fill-rule:evenodd; clip-rule:evenodd" xmlns:xlink="http://www.w3.org/1999/xlink">
<g><path style="opacity:0.004" fill="#ebeae8" d="M 211.5,100.5 C 202.907,98.9937 194.241,98.3271 185.5,98.5C 185.866,97.3054 186.699,96.6387 188,96.5C 193.462,97.2645 198.962,97.7645 204.5,98C 207.104,98.3903 209.438,99.2237 211.5,100.5 Z"/></g>
<g><path style="opacity:0.035" fill="#e3e2df" d="M 211.5,100.5 C 217.385,101.119 222.385,103.453 226.5,107.5C 221.542,104.964 216.542,102.631 211.5,100.5 Z"/></g>
<g><path style="opacity:0.608" fill="#e8e6e2" d="M 275.5,114.5 C 278.112,111.331 278.112,108.164 275.5,105C 274.5,104.333 273.5,104.333 272.5,105C 270.609,106.442 268.609,107.609 266.5,108.5C 270.81,102.253 275.143,102.087 279.5,108C 278.751,109.734 278.251,111.567 278,113.5C 277.329,114.252 276.496,114.586 275.5,114.5 Z"/></g>
<g><path style="opacity:0.086" fill="#d9d8d4" d="M 185.5,110.5 C 186.768,112.905 187.435,115.572 187.5,118.5C 185.96,116.162 185.294,113.495 185.5,110.5 Z"/></g>
<g><path style="opacity:0.012" fill="#f6f6f4" d="M 272.5,115.5 C 272.027,116.906 271.027,117.573 269.5,117.5C 269.973,116.094 270.973,115.427 272.5,115.5 Z"/></g>
<g><path style="opacity:0.012" fill="#efedea" d="M 269.5,117.5 C 269.027,118.906 268.027,119.573 266.5,119.5C 266.973,118.094 267.973,117.427 269.5,117.5 Z"/></g>
<g><path style="opacity:0.008" fill="#e6e5e0" d="M 266.5,119.5 C 264.542,122.792 262.209,125.792 259.5,128.5C 259.5,127.833 259.5,127.167 259.5,126.5C 261.473,123.861 263.806,121.527 266.5,119.5 Z"/></g>
<g><path style="opacity:0.104" fill="#e7e6e3" d="M 187.5,118.5 C 189.403,121.979 191.07,125.646 192.5,129.5C 189.504,126.503 187.837,122.836 187.5,118.5 Z"/></g>
<g><path style="opacity:0.035" fill="#e8e6e4" d="M 192.5,129.5 C 193.906,129.973 194.573,130.973 194.5,132.5C 193.094,132.027 192.427,131.027 192.5,129.5 Z"/></g>
<g><path style="opacity:1" fill="#71716a" d="M 259.5,126.5 C 259.5,127.167 259.5,127.833 259.5,128.5C 258.341,132.151 256.674,135.485 254.5,138.5C 254.998,135.513 255.498,132.513 256,129.5C 256.333,129.833 256.667,130.167 257,130.5C 257.202,128.744 257.702,127.078 258.5,125.5C 259.107,125.624 259.44,125.957 259.5,126.5 Z"/></g>
<g><path style="opacity:0.004" fill="#e1dfdb" d="M 195.5,133.5 C 197.5,134.833 199.167,136.5 200.5,138.5C 197.833,137.833 196.167,136.167 195.5,133.5 Z"/></g>
<g><path style="opacity:0.173" fill="#d0d0cc" d="M 204.5,141.5 C 206.027,141.427 207.027,142.094 207.5,143.5C 205.973,143.573 204.973,142.906 204.5,141.5 Z"/></g>
<g><path style="opacity:1" fill="#999792" d="M 291.5,142.5 C 291.5,142.833 291.5,143.167 291.5,143.5C 285.833,143.5 280.167,143.5 274.5,143.5C 274.5,143.167 274.5,142.833 274.5,142.5C 280.167,141.167 285.833,141.167 291.5,142.5 Z"/></g>
<g><path style="opacity:0.416" fill="#ebe9e6" d="M 274.5,142.5 C 274.5,142.833 274.5,143.167 274.5,143.5C 271.482,143.704 268.482,144.037 265.5,144.5C 268.171,142.882 271.171,142.215 274.5,142.5 Z"/></g>
<g><path style="opacity:0.263" fill="#ebeae7" d="M 207.5,144.5 C 204.727,145.657 201.727,146.324 198.5,146.5C 201.123,144.735 204.123,144.068 207.5,144.5 Z"/></g>
<g><path style="opacity:1" fill="#9b9a91" d="M 195.5,147.5 C 193.75,148.473 192.25,149.807 191,151.5C 190.329,150.748 189.496,150.414 188.5,150.5C 190.426,148.707 192.759,147.707 195.5,147.5 Z"/></g>
<g><path style="opacity:0.112" fill="#dfddd9" d="M 291.5,143.5 C 291.5,143.167 291.5,142.833 291.5,142.5C 296.413,142.003 300.913,143.003 305,145.5C 304.655,149.568 303.655,153.568 302,157.5C 299.666,170.454 304.666,178.787 317,182.5C 317.885,185.538 317.385,188.205 315.5,190.5C 315.993,188.194 316.326,185.861 316.5,183.5C 305.352,180.578 300.018,173.245 300.5,161.5C 300.786,156.176 301.952,151.176 304,146.5C 300.14,144.327 295.973,143.327 291.5,143.5 Z"/></g>
<g><path style="opacity:0.843" fill="#e2e0d8" d="M 188.5,150.5 C 174.401,159.265 163.401,170.931 155.5,185.5C 158.288,178.602 162.121,172.268 167,166.5C 172.758,159.061 179.925,153.728 188.5,150.5 Z"/></g>
<g><path style="opacity:0.186" fill="#efeeeb" d="M 155.5,185.5 C 153.678,190.974 151.678,196.308 149.5,201.5C 150.148,195.543 152.148,190.21 155.5,185.5 Z"/></g>
<g><path style="opacity:0.082" fill="#ebebe8" d="M 315.5,198.5 C 317.065,200.509 318.065,202.843 318.5,205.5C 316.552,203.68 315.552,201.346 315.5,198.5 Z"/></g>
<g><path style="opacity:0.412" fill="#e6e5e2" d="M 354.5,249.5 C 351.141,247.639 349.141,244.805 348.5,241C 350.891,230.127 350.891,219.294 348.5,208.5C 347.833,208.167 347.167,207.833 346.5,207.5C 341.628,209.909 336.462,211.242 331,211.5C 328.179,211.592 325.679,210.926 323.5,209.5C 328.844,209.666 334.177,209.499 339.5,209C 342.595,206.585 345.929,205.752 349.5,206.5C 351.018,211.869 351.685,217.369 351.5,223C 351.043,230.177 350.876,237.343 351,244.5C 352.802,245.789 353.969,247.456 354.5,249.5 Z"/></g>
<g><path style="opacity:0.212" fill="#e0e0dd" d="M 318.5,205.5 C 320.389,206.604 322.055,207.937 323.5,209.5C 320.796,209.33 319.129,207.997 318.5,205.5 Z"/></g>
<g><path style="opacity:0.075" fill="#eae9e7" d="M 149.5,201.5 C 149.069,207.685 148.402,213.852 147.5,220C 148.545,227.823 149.045,235.656 149,243.5C 148.623,244.942 147.79,245.942 146.5,246.5C 147.156,244.516 147.822,242.516 148.5,240.5C 145.645,227.263 145.979,214.263 149.5,201.5 Z"/></g>
<g><path style="opacity:1" fill="#2a2c22" d="M 185.5,98.5 C 194.241,98.3271 202.907,98.9937 211.5,100.5C 216.542,102.631 221.542,104.964 226.5,107.5C 227.167,107.5 227.5,107.833 227.5,108.5C 233.739,114.657 238.739,121.657 242.5,129.5C 242.736,132.914 243.402,136.247 244.5,139.5C 245.298,139.043 245.631,138.376 245.5,137.5C 245.328,136.508 245.662,135.842 246.5,135.5C 251.593,125.397 258.259,116.397 266.5,108.5C 268.609,107.609 270.609,106.442 272.5,105C 273.5,104.333 274.5,104.333 275.5,105C 278.112,108.164 278.112,111.331 275.5,114.5C 274.609,115.11 273.609,115.443 272.5,115.5C 270.973,115.427 269.973,116.094 269.5,117.5C 267.973,117.427 266.973,118.094 266.5,119.5C 263.806,121.527 261.473,123.861 259.5,126.5C 259.44,125.957 259.107,125.624 258.5,125.5C 257.702,127.078 257.202,128.744 257,130.5C 256.667,130.167 256.333,129.833 256,129.5C 255.498,132.513 254.998,135.513 254.5,138.5C 253.369,141.889 252.036,145.222 250.5,148.5C 250.957,149.298 251.624,149.631 252.5,149.5C 254.553,149.598 256.22,148.931 257.5,147.5C 260.443,147.02 263.11,146.02 265.5,144.5C 268.482,144.037 271.482,143.704 274.5,143.5C 280.167,143.5 285.833,143.5 291.5,143.5C 295.973,143.327 300.14,144.327 304,146.5C 301.952,151.176 300.786,156.176 300.5,161.5C 300.018,173.245 305.352,180.578 316.5,183.5C 316.326,185.861 315.993,188.194 315.5,190.5C 315.5,193.167 315.5,195.833 315.5,198.5C 315.552,201.346 316.552,203.68 318.5,205.5C 319.129,207.997 320.796,209.33 323.5,209.5C 325.679,210.926 328.179,211.592 331,211.5C 336.462,211.242 341.628,209.909 346.5,207.5C 347.167,207.833 347.833,208.167 348.5,208.5C 350.891,219.294 350.891,230.127 348.5,241C 349.141,244.805 351.141,247.639 354.5,249.5C 355.34,251.853 356.674,253.853 358.5,255.5C 359.079,258.331 360.412,260.664 362.5,262.5C 364.11,266.67 365.11,271.003 365.5,275.5C 365.232,278.517 364.898,281.517 364.5,284.5C 363.599,285.29 362.932,286.29 362.5,287.5C 357.16,290.601 351.493,291.268 345.5,289.5C 344.508,289.672 343.842,289.338 343.5,288.5C 342.5,286.833 341.167,285.5 339.5,284.5C 338.872,281.91 337.705,279.577 336,277.5C 334.961,278.244 334.461,279.244 334.5,280.5C 334.5,281.167 334.167,281.5 333.5,281.5C 332.094,281.973 331.427,282.973 331.5,284.5C 326.5,288.833 321.833,293.5 317.5,298.5C 314.792,301.209 311.792,303.542 308.5,305.5C 302.79,308.176 297.123,310.842 291.5,313.5C 291.5,315.167 291.5,316.833 291.5,318.5C 290.366,320.966 290.199,323.633 291,326.5C 295.861,328.527 300.028,331.527 303.5,335.5C 304.86,342.617 302.193,347.451 295.5,350C 286.436,352.051 277.436,351.884 268.5,349.5C 267.167,347.5 265.5,345.833 263.5,344.5C 262.833,344.5 262.5,344.167 262.5,343.5C 260.982,334.131 259.982,324.798 259.5,315.5C 256.114,314.03 252.447,313.363 248.5,313.5C 244.859,313.315 241.526,313.981 238.5,315.5C 237.85,315.804 237.183,316.137 236.5,316.5C 235.833,320.647 235.166,324.647 234.5,328.5C 233.659,333.01 232.992,337.676 232.5,342.5C 232.672,343.492 232.338,344.158 231.5,344.5C 230.167,345.167 229.167,346.167 228.5,347.5C 228.5,348.167 228.167,348.5 227.5,348.5C 218.755,351.21 209.755,352.21 200.5,351.5C 199.486,350.326 198.153,349.66 196.5,349.5C 194.596,349.262 193.262,348.262 192.5,346.5C 191.844,344.516 191.178,342.516 190.5,340.5C 191,338.5 191.5,336.5 192,334.5C 194.37,331.961 196.87,329.628 199.5,327.5C 200.93,327.579 202.264,327.246 203.5,326.5C 204.662,321.869 204.828,317.202 204,312.5C 202.89,310.963 201.39,310.297 199.5,310.5C 196.696,308.595 193.696,306.929 190.5,305.5C 190.027,304.094 189.027,303.427 187.5,303.5C 186.738,301.738 185.404,300.738 183.5,300.5C 179.5,295.833 175.167,291.5 170.5,287.5C 169.5,287.167 168.833,286.5 168.5,285.5C 168.573,283.973 167.906,282.973 166.5,282.5C 165.363,281.211 164.03,280.211 162.5,279.5C 156.496,290.833 147.829,293.5 136.5,287.5C 134.48,283.952 133.48,280.119 133.5,276C 133.807,271.269 134.807,266.769 136.5,262.5C 138.588,260.664 139.921,258.331 140.5,255.5C 142.326,253.853 143.66,251.853 144.5,249.5C 145.906,249.027 146.573,248.027 146.5,246.5C 147.79,245.942 148.623,244.942 149,243.5C 149.045,235.656 148.545,227.823 147.5,220C 148.402,213.852 149.069,207.685 149.5,201.5C 151.678,196.308 153.678,190.974 155.5,185.5C 163.401,170.931 174.401,159.265 188.5,150.5C 189.496,150.414 190.329,150.748 191,151.5C 192.25,149.807 193.75,148.473 195.5,147.5C 196.209,146.596 197.209,146.263 198.5,146.5C 201.727,146.324 204.727,145.657 207.5,144.5C 208.833,144.167 208.833,143.833 207.5,143.5C 207.027,142.094 206.027,141.427 204.5,141.5C 202.596,141.262 201.262,140.262 200.5,138.5C 199.167,136.5 197.5,134.833 195.5,133.5C 194.833,133.5 194.5,133.167 194.5,132.5C 194.573,130.973 193.906,129.973 192.5,129.5C 191.07,125.646 189.403,121.979 187.5,118.5C 187.435,115.572 186.768,112.905 185.5,110.5C 184.167,106.5 184.167,102.5 185.5,98.5 Z"/></g>
<g><path style="opacity:1" fill="#fd6f4e" d="M 279.5,148.5 C 285.181,148.635 290.848,148.968 296.5,149.5C 293.42,160.014 294.586,170.014 300,179.5C 302.397,182.4 305.23,184.733 308.5,186.5C 307.914,211.262 319.581,220.929 343.5,215.5C 345.975,250.038 333.642,277.871 306.5,299C 296.371,305.812 285.205,309.646 273,310.5C 264.852,309.303 256.685,308.303 248.5,307.5C 240.514,308.495 232.514,309.495 224.5,310.5C 204.984,308.166 188.817,299.499 176,284.5C 155.195,258.196 149.195,228.863 158,196.5C 165.235,177.264 178.069,163.098 196.5,154C 207.321,150.346 218.321,149.679 229.5,152C 234.594,154.531 239.928,156.365 245.5,157.5C 253.575,155.309 261.575,152.809 269.5,150C 273.025,149.821 276.359,149.321 279.5,148.5 Z"/></g>
<g><path style="opacity:1" fill="#2b2a20" d="M 279.5,218.5 C 286.793,219.301 290.46,223.468 290.5,231C 290.477,239.367 286.477,243.034 278.5,242C 271.681,233.886 272.015,226.053 279.5,218.5 Z"/></g>
<g><path style="opacity:1" fill="#2a2a20" d="M 210.5,218.5 C 221.722,221.296 224.555,227.962 219,238.5C 215.385,243.423 211.385,243.756 207,239.5C 202.866,231.554 204.033,224.554 210.5,218.5 Z"/></g>
<g><path style="opacity:1" fill="#f5a49a" d="M 185.5,170.5 C 189.976,170.822 191.476,173.156 190,177.5C 185.549,180.984 181.382,184.817 177.5,189C 172.44,188.741 171.274,186.241 174,181.5C 177.07,176.927 180.904,173.261 185.5,170.5 Z"/></g>
<g><path style="opacity:0.114" fill="#dad8d1" d="M 257.5,147.5 C 256.22,148.931 254.553,149.598 252.5,149.5C 253.78,148.069 255.447,147.402 257.5,147.5 Z"/></g>
<g><path style="opacity:0.014" fill="#ebe9e6" d="M 265.5,144.5 C 263.11,146.02 260.443,147.02 257.5,147.5C 259.684,145.415 262.351,144.415 265.5,144.5 Z"/></g>
<g><path style="opacity:0.004" fill="#ecebe9" d="M 242.5,129.5 C 243.749,132.087 244.749,134.754 245.5,137.5C 245.631,138.376 245.298,139.043 244.5,139.5C 243.402,136.247 242.736,132.914 242.5,129.5 Z"/></g>
<g><path style="opacity:0.278" fill="#dddbd5" d="M 266.5,108.5 C 258.259,116.397 251.593,125.397 246.5,135.5C 250.139,124.203 256.805,115.203 266.5,108.5 Z"/></g>
<g><path style="opacity:1" fill="#449a42" d="M 237.5,142.5 C 237.631,143.239 237.464,143.906 237,144.5C 228.895,136.558 220.395,129.224 211.5,122.5C 212.525,122.103 212.692,121.437 212,120.5C 209.261,117.882 206.427,115.382 203.5,113C 205.631,113.398 207.631,114.398 209.5,116C 219.662,123.997 228.996,132.83 237.5,142.5 Z"/></g>
<g><path style="opacity:0.404" fill="#e4e3df" d="M 227.5,108.5 C 235.176,113.494 240.176,120.494 242.5,129.5C 238.739,121.657 233.739,114.657 227.5,108.5 Z"/></g>
<g><path style="opacity:1" fill="#63b44b" d="M 238.5,141.5 C 237.833,141.5 237.5,141.833 237.5,142.5C 228.996,132.83 219.662,123.997 209.5,116C 207.631,114.398 205.631,113.398 203.5,113C 206.427,115.382 209.261,117.882 212,120.5C 212.692,121.437 212.525,122.103 211.5,122.5C 206.145,119.658 201.478,115.825 197.5,111C 196.034,110.365 194.7,109.531 193.5,108.5C 192.893,108.624 192.56,108.957 192.5,109.5C 191.549,108.081 191.216,106.415 191.5,104.5C 208.853,103.439 222.687,109.772 233,123.5C 235.946,129.171 237.78,135.171 238.5,141.5 Z"/></g>
<g><path style="opacity:1" fill="#71c44d" d="M 211.5,122.5 C 220.395,129.224 228.895,136.558 237,144.5C 237.464,143.906 237.631,143.239 237.5,142.5C 237.5,141.833 237.833,141.5 238.5,141.5C 238.662,143.527 238.495,145.527 238,147.5C 226.693,145.288 216.193,141.122 206.5,135C 198.038,128.575 193.371,120.075 192.5,109.5C 192.56,108.957 192.893,108.624 193.5,108.5C 194.7,109.531 196.034,110.365 197.5,111C 201.478,115.825 206.145,119.658 211.5,122.5 Z"/></g>
<g><path style="opacity:0.898" fill="#cdcec5" d="M 146.5,246.5 C 146.573,248.027 145.906,249.027 144.5,249.5C 144.427,247.973 145.094,246.973 146.5,246.5 Z"/></g>
<g><path style="opacity:1" fill="#28291f" d="M 231.5,243.5 C 236.247,246.105 241.414,247.772 247,248.5C 252.455,248.434 257.288,246.767 261.5,243.5C 265.131,244.761 265.464,246.761 262.5,249.5C 253.533,255.4 244.199,255.9 234.5,251C 231.959,249.152 230.959,246.652 231.5,243.5 Z"/></g>
<g><path style="opacity:0.831" fill="#d8d7d2" d="M 354.5,249.5 C 356.822,250.802 358.155,252.802 358.5,255.5C 356.674,253.853 355.34,251.853 354.5,249.5 Z"/></g>
<g><path style="opacity:1" fill="#f76f4d" d="M 150.5,251.5 C 151.497,251.47 152.164,251.97 152.5,253C 154.148,259.112 156.482,264.946 159.5,270.5C 157.616,275.774 154.616,280.274 150.5,284C 140.902,285.389 137.402,281.222 140,271.5C 142.733,264.364 146.233,257.698 150.5,251.5 Z"/></g>
<g><path style="opacity:1" fill="#f86f4d" d="M 346.5,251.5 C 349.091,252.254 350.924,253.921 352,256.5C 354.772,260.941 357.106,265.608 359,270.5C 359.667,273.5 359.667,276.5 359,279.5C 356.133,284.687 351.967,285.854 346.5,283C 344.17,278.685 341.836,274.351 339.5,270C 342.136,263.921 344.47,257.755 346.5,251.5 Z"/></g>
<g><path style="opacity:0.596" fill="#d3d0cb" d="M 144.5,249.5 C 143.66,251.853 142.326,253.853 140.5,255.5C 140.845,252.802 142.178,250.802 144.5,249.5 Z"/></g>
<g><path style="opacity:0.678" fill="#e2e1d8" d="M 358.5,255.5 C 360.588,257.336 361.921,259.669 362.5,262.5C 360.412,260.664 359.079,258.331 358.5,255.5 Z"/></g>
<g><path style="opacity:0.333" fill="#d6d5d1" d="M 140.5,255.5 C 139.921,258.331 138.588,260.664 136.5,262.5C 137.079,259.669 138.412,257.336 140.5,255.5 Z"/></g>
<g><path style="opacity:0.443" fill="#dcdbd8" d="M 136.5,262.5 C 134.807,266.769 133.807,271.269 133.5,276C 133.48,280.119 134.48,283.952 136.5,287.5C 133.129,284.49 131.795,280.656 132.5,276C 132.148,270.899 133.481,266.399 136.5,262.5 Z"/></g>
<g><path style="opacity:0.242" fill="#f5f5f4" d="M 362.5,262.5 C 364.311,264.385 365.478,266.719 366,269.5C 366.667,273.833 366.667,278.167 366,282.5C 365.722,283.416 365.222,284.082 364.5,284.5C 364.898,281.517 365.232,278.517 365.5,275.5C 365.11,271.003 364.11,266.67 362.5,262.5 Z"/></g>
<g><path style="opacity:0.243" fill="#c9c8c4" d="M 339.5,284.5 C 337.864,283.251 336.697,281.584 336,279.5C 335.617,280.056 335.117,280.389 334.5,280.5C 334.461,279.244 334.961,278.244 336,277.5C 337.705,279.577 338.872,281.91 339.5,284.5 Z"/></g>
<g><path style="opacity:0.008" fill="#e8e7e1" d="M 166.5,282.5 C 167.906,282.973 168.573,283.973 168.5,285.5C 167.094,285.027 166.427,284.027 166.5,282.5 Z"/></g>
<g><path style="opacity:0.063" fill="#e1dfdc" d="M 333.5,281.5 C 333.573,283.027 332.906,284.027 331.5,284.5C 331.427,282.973 332.094,281.973 333.5,281.5 Z"/></g>
<g><path style="opacity:0.004" fill="#ebe9e7" d="M 339.5,284.5 C 341.167,285.5 342.5,286.833 343.5,288.5C 341.167,288.167 339.833,286.833 339.5,284.5 Z"/></g>
<g><path style="opacity:0.059" fill="#f8f9f6" d="M 364.5,284.5 C 364.715,286.179 364.048,287.179 362.5,287.5C 362.932,286.29 363.599,285.29 364.5,284.5 Z"/></g>
<g><path style="opacity:0.035" fill="#d2d1cc" d="M 170.5,287.5 C 175.167,291.5 179.5,295.833 183.5,300.5C 178.167,297.167 173.833,292.833 170.5,287.5 Z"/></g>
<g><path style="opacity:0.035" fill="#e1dcd7" d="M 331.5,284.5 C 327.833,290.167 323.167,294.833 317.5,298.5C 321.833,293.5 326.5,288.833 331.5,284.5 Z"/></g>
<g><path style="opacity:0.875" fill="#dad9d7" d="M 362.5,287.5 C 360.256,290.931 356.922,292.598 352.5,292.5C 349.64,292.445 347.307,291.445 345.5,289.5C 351.493,291.268 357.16,290.601 362.5,287.5 Z"/></g>
<g><path style="opacity:0.007" fill="#eae9e7" d="M 162.5,279.5 C 159.233,288.972 152.567,293.139 142.5,292C 139.894,291.208 137.894,289.708 136.5,287.5C 147.829,293.5 156.496,290.833 162.5,279.5 Z"/></g>
<g><path style="opacity:0.553" fill="#bab8af" d="M 183.5,300.5 C 185.404,300.738 186.738,301.738 187.5,303.5C 185.596,303.262 184.262,302.262 183.5,300.5 Z"/></g>
<g><path style="opacity:0.686" fill="#b2afa9" d="M 187.5,303.5 C 189.027,303.427 190.027,304.094 190.5,305.5C 188.973,305.573 187.973,304.906 187.5,303.5 Z"/></g>
<g><path style="opacity:0.004" fill="#dcdcd8" d="M 190.5,305.5 C 193.696,306.929 196.696,308.595 199.5,310.5C 195.662,310.087 192.662,308.42 190.5,305.5 Z"/></g>
<g><path style="opacity:0.055" fill="#dfdedb" d="M 308.5,305.5 C 303.635,309.687 297.968,312.353 291.5,313.5C 297.123,310.842 302.79,308.176 308.5,305.5 Z"/></g>
<g><path style="opacity:0.082" fill="#ddddda" d="M 259.5,315.5 C 252.5,314.167 245.5,314.167 238.5,315.5C 241.526,313.981 244.859,313.315 248.5,313.5C 252.447,313.363 256.114,314.03 259.5,315.5 Z"/></g>
<g><path style="opacity:1" fill="#f86e4d" d="M 210.5,314.5 C 216.471,315.241 222.471,315.575 228.5,315.5C 228.88,323.97 228.047,332.303 226,340.5C 221.848,344.909 216.682,346.909 210.5,346.5C 207.433,346.393 204.433,345.893 201.5,345C 195.805,342.596 195.138,339.262 199.5,335C 203.268,334.023 206.768,332.523 210,330.5C 210.499,325.177 210.666,319.844 210.5,314.5 Z"/></g>
<g><path style="opacity:1" fill="#f76d4d" d="M 282.5,314.5 C 284.137,319.774 285.137,325.441 285.5,331.5C 288.673,332.21 291.673,333.377 294.5,335C 298.582,338.697 298.249,342.03 293.5,345C 285.529,347.475 277.862,346.808 270.5,343C 269.789,341.745 268.956,340.579 268,339.5C 266.637,331.571 266.137,323.571 266.5,315.5C 272.026,315.821 277.36,315.488 282.5,314.5 Z"/></g>
<g><path style="opacity:0.739" fill="#d8d7d2" d="M 199.5,310.5 C 201.39,310.297 202.89,310.963 204,312.5C 204.828,317.202 204.662,321.869 203.5,326.5C 202.264,327.246 200.93,327.579 199.5,327.5C 200.261,326.609 201.261,325.942 202.5,325.5C 203.585,321.154 203.418,316.821 202,312.5C 201.005,311.934 200.172,311.267 199.5,310.5 Z"/></g>
<g><path style="opacity:0.733" fill="#d3d2cc" d="M 291.5,318.5 C 291.337,320.857 291.503,323.19 292,325.5C 297.257,327.261 301.091,330.594 303.5,335.5C 300.028,331.527 295.861,328.527 291,326.5C 290.199,323.633 290.366,320.966 291.5,318.5 Z"/></g>
<g><path style="opacity:0.737" fill="#d8d7d1" d="M 199.5,327.5 C 196.87,329.628 194.37,331.961 192,334.5C 191.5,336.5 191,338.5 190.5,340.5C 191.178,342.516 191.844,344.516 192.5,346.5C 190.32,344.969 189.32,342.802 189.5,340C 189.886,333.36 193.22,329.193 199.5,327.5 Z"/></g>
<g><path style="opacity:0.788" fill="#dad8d2" d="M 234.5,328.5 C 234.666,332.514 234.499,336.514 234,340.5C 233.722,341.416 233.222,342.082 232.5,342.5C 232.992,337.676 233.659,333.01 234.5,328.5 Z"/></g>
<g><path style="opacity:0.048" fill="#e4e4e0" d="M 259.5,315.5 C 259.982,324.798 260.982,334.131 262.5,343.5C 261.442,342.4 260.608,341.066 260,339.5C 259.5,331.507 259.334,323.507 259.5,315.5 Z"/></g>
<g><path style="opacity:0.004" fill="#d3d2cd" d="M 231.5,344.5 C 231.5,346.5 230.5,347.5 228.5,347.5C 229.167,346.167 230.167,345.167 231.5,344.5 Z"/></g>
<g><path style="opacity:0.024" fill="#cdcbc7" d="M 263.5,344.5 C 265.5,345.833 267.167,347.5 268.5,349.5C 265.833,348.833 264.167,347.167 263.5,344.5 Z"/></g>
<g><path style="opacity:0.125" fill="#d9d8d1" d="M 196.5,349.5 C 198.153,349.66 199.486,350.326 200.5,351.5C 198.62,351.771 197.287,351.104 196.5,349.5 Z"/></g>
<g><path style="opacity:0.588" fill="#c2c0b7" d="M 227.5,348.5 C 226.251,350.136 224.584,351.303 222.5,352C 214.966,354.124 207.633,353.957 200.5,351.5C 209.755,352.21 218.755,351.21 227.5,348.5 Z"/></g>
<g><path style="opacity:0.024" fill="#c5c3bb" d="M 303.5,335.5 C 306.144,342.329 304.144,347.496 297.5,351C 289.261,353.738 280.927,354.072 272.5,352C 270.934,351.392 269.6,350.558 268.5,349.5C 277.436,351.884 286.436,352.051 295.5,350C 302.193,347.451 304.86,342.617 303.5,335.5 Z"/></g>
</svg>
